<svg xmlns="http://www.w3.org/2000/svg" width="512" height="512" viewBox="0 0 512 512">
  <path d="M 3,0 L 17,0 L 18,1 L 28,1 L 29,2 L 36,2 L 37,3 L 44,3 L 45,4 L 51,4 L 52,5 L 57,5 L 58,6 L 63,6 L 64,7 L 68,7 L 69,8 L 73,8 L 74,9 L 78,9 L 79,10 L 82,10 L 83,11 L 87,11 L 88,12 L 92,12 L 93,13 L 95,13 L 96,14 L 99,14 L 100,15 L 102,15 L 103,16 L 106,16 L 107,17 L 110,17 L 111,18 L 113,18 L 114,19 L 117,19 L 118,20 L 120,20 L 121,21 L 123,21 L 124,22 L 126,22 L 127,23 L 129,23 L 130,24 L 132,24 L 133,25 L 134,25 L 135,26 L 137,26 L 138,27 L 139,27 L 140,28 L 142,28 L 143,29 L 144,29 L 145,30 L 147,30 L 148,31 L 149,31 L 150,32 L 151,32 L 152,33 L 154,33 L 155,34 L 156,34 L 157,35 L 158,35 L 159,36 L 160,36 L 161,37 L 162,37 L 163,38 L 164,38 L 165,39 L 166,39 L 167,40 L 168,40 L 169,41 L 170,41 L 172,43 L 173,43 L 174,44 L 175,44 L 176,45 L 177,45 L 179,47 L 180,47 L 182,49 L 183,49 L 185,51 L 186,51 L 187,52 L 188,52 L 190,54 L 191,54 L 195,58 L 196,58 L 199,61 L 200,61 L 206,67 L 207,67 L 217,77 L 217,78 L 223,84 L 223,85 L 226,88 L 226,89 L 229,92 L 229,93 L 230,94 L 230,95 L 232,97 L 232,98 L 233,99 L 233,100 L 235,102 L 235,103 L 236,104 L 236,105 L 237,106 L 237,107 L 238,108 L 238,110 L 239,111 L 239,112 L 240,113 L 240,114 L 241,115 L 241,116 L 242,117 L 242,119 L 243,120 L 243,123 L 244,124 L 244,126 L 245,127 L 245,129 L 246,130 L 246,134 L 247,135 L 247,140 L 248,141 L 248,147 L 249,148 L 249,176 L 248,177 L 248,183 L 247,184 L 247,190 L 246,191 L 246,196 L 245,197 L 245,200 L 244,201 L 244,204 L 243,205 L 243,208 L 242,209 L 242,212 L 241,213 L 241,215 L 242,216 L 242,217 L 244,219 L 244,220 L 245,221 L 245,222 L 247,224 L 247,225 L 248,226 L 248,227 L 250,229 L 250,230 L 251,231 L 251,232 L 252,233 L 252,234 L 253,235 L 253,236 L 254,237 L 254,238 L 255,239 L 255,240 L 256,241 L 256,242 L 257,243 L 257,244 L 258,245 L 258,246 L 259,247 L 259,248 L 260,249 L 260,250 L 261,251 L 261,253 L 262,254 L 262,255 L 263,256 L 263,258 L 264,259 L 264,260 L 265,261 L 265,263 L 266,264 L 266,265 L 267,266 L 267,268 L 268,269 L 268,270 L 269,271 L 269,273 L 270,274 L 270,276 L 271,277 L 271,279 L 272,280 L 272,282 L 273,283 L 273,285 L 274,286 L 274,288 L 275,289 L 275,291 L 276,292 L 276,294 L 277,295 L 277,298 L 278,299 L 278,301 L 280,299 L 280,298 L 281,297 L 281,296 L 283,294 L 283,293 L 284,292 L 284,291 L 286,289 L 286,288 L 288,286 L 288,285 L 290,283 L 290,282 L 293,279 L 293,278 L 296,275 L 296,274 L 301,269 L 301,268 L 312,257 L 312,255 L 311,254 L 311,251 L 310,250 L 310,246 L 309,245 L 309,240 L 308,239 L 308,231 L 307,230 L 307,215 L 308,214 L 308,206 L 309,205 L 309,201 L 310,200 L 310,197 L 311,196 L 311,193 L 312,192 L 312,190 L 313,189 L 313,188 L 314,187 L 314,185 L 315,184 L 315,183 L 316,182 L 316,181 L 317,180 L 317,179 L 318,178 L 318,177 L 319,176 L 319,175 L 320,174 L 320,173 L 322,171 L 322,170 L 324,168 L 324,167 L 326,165 L 326,164 L 330,160 L 330,159 L 343,146 L 344,146 L 349,141 L 350,141 L 352,139 L 353,139 L 356,136 L 357,136 L 359,134 L 360,134 L 361,133 L 362,133 L 364,131 L 365,131 L 366,130 L 367,130 L 369,128 L 370,128 L 371,127 L 372,127 L 373,126 L 374,126 L 375,125 L 376,125 L 377,124 L 378,124 L 379,123 L 380,123 L 381,122 L 382,122 L 383,121 L 384,121 L 385,120 L 386,120 L 387,119 L 389,119 L 390,118 L 391,118 L 392,117 L 394,117 L 395,116 L 396,116 L 397,115 L 399,115 L 400,114 L 402,114 L 403,113 L 405,113 L 406,112 L 408,112 L 409,111 L 410,111 L 411,110 L 413,110 L 414,109 L 416,109 L 417,108 L 420,108 L 421,107 L 424,107 L 425,106 L 427,106 L 428,105 L 431,105 L 432,104 L 435,104 L 436,103 L 439,103 L 440,102 L 443,102 L 444,101 L 448,101 L 449,100 L 453,100 L 454,99 L 458,99 L 459,98 L 464,98 L 465,97 L 469,97 L 470,96 L 476,96 L 477,95 L 484,95 L 485,94 L 493,94 L 494,93 L 505,93 L 506,92 L 510,92 L 511,93 L 511,100 L 510,101 L 510,110 L 509,111 L 509,120 L 508,121 L 508,128 L 507,129 L 507,134 L 506,135 L 506,141 L 505,142 L 505,146 L 504,147 L 504,151 L 503,152 L 503,156 L 502,157 L 502,160 L 501,161 L 501,165 L 500,166 L 500,169 L 499,170 L 499,173 L 498,174 L 498,176 L 497,177 L 497,180 L 496,181 L 496,183 L 495,184 L 495,186 L 494,187 L 494,189 L 493,190 L 493,192 L 492,193 L 492,195 L 491,196 L 491,198 L 490,199 L 490,200 L 489,201 L 489,203 L 488,204 L 488,206 L 487,207 L 487,208 L 486,209 L 486,211 L 485,212 L 485,213 L 484,214 L 484,215 L 483,216 L 483,217 L 482,218 L 482,220 L 481,221 L 481,222 L 480,223 L 480,224 L 478,226 L 478,227 L 477,228 L 477,229 L 476,230 L 476,231 L 475,232 L 475,233 L 473,235 L 473,236 L 472,237 L 472,238 L 470,240 L 470,241 L 468,243 L 468,244 L 466,246 L 466,247 L 462,251 L 462,252 L 457,257 L 457,258 L 448,267 L 447,267 L 442,272 L 441,272 L 438,275 L 437,275 L 435,277 L 434,277 L 433,278 L 432,278 L 430,280 L 429,280 L 428,281 L 427,281 L 426,282 L 425,282 L 424,283 L 423,283 L 422,284 L 421,284 L 420,285 L 419,285 L 418,286 L 416,286 L 415,287 L 413,287 L 412,288 L 410,288 L 409,289 L 405,289 L 404,290 L 401,290 L 400,291 L 394,291 L 393,292 L 375,292 L 374,291 L 374,290 L 375,289 L 375,282 L 376,281 L 376,277 L 377,276 L 377,272 L 378,271 L 378,269 L 379,268 L 379,266 L 380,265 L 380,263 L 381,262 L 381,260 L 382,259 L 382,257 L 383,256 L 383,254 L 384,253 L 384,252 L 385,251 L 385,250 L 386,249 L 386,247 L 387,246 L 387,245 L 388,244 L 388,243 L 389,242 L 389,241 L 390,240 L 390,239 L 391,238 L 391,237 L 392,236 L 392,235 L 394,233 L 394,232 L 395,231 L 395,230 L 396,229 L 396,228 L 398,226 L 398,225 L 399,224 L 399,223 L 400,222 L 400,221 L 402,219 L 402,218 L 404,216 L 404,215 L 406,213 L 406,212 L 408,210 L 408,209 L 411,206 L 411,205 L 414,202 L 414,201 L 417,198 L 417,197 L 421,193 L 421,192 L 424,189 L 423,189 L 420,192 L 419,192 L 415,196 L 414,196 L 409,201 L 408,201 L 385,224 L 385,225 L 377,233 L 377,234 L 374,237 L 374,238 L 370,242 L 370,243 L 366,247 L 366,248 L 363,251 L 363,252 L 361,254 L 361,255 L 359,257 L 359,258 L 356,261 L 356,262 L 354,264 L 354,265 L 352,267 L 352,268 L 350,270 L 350,271 L 348,273 L 348,274 L 346,276 L 346,277 L 344,279 L 344,280 L 343,281 L 343,282 L 341,284 L 341,285 L 339,287 L 339,288 L 338,289 L 338,290 L 337,291 L 337,292 L 335,294 L 335,295 L 334,296 L 334,297 L 332,299 L 332,300 L 331,301 L 331,302 L 330,303 L 330,304 L 329,305 L 329,306 L 328,307 L 328,308 L 326,310 L 326,311 L 325,312 L 325,313 L 324,314 L 324,315 L 323,316 L 323,317 L 321,319 L 321,320 L 320,321 L 320,322 L 318,324 L 318,325 L 317,326 L 317,327 L 316,328 L 316,329 L 315,330 L 315,331 L 314,332 L 314,334 L 313,335 L 313,336 L 312,337 L 312,338 L 311,339 L 311,340 L 310,341 L 310,342 L 309,343 L 309,345 L 308,346 L 308,347 L 307,348 L 307,350 L 306,351 L 306,353 L 305,354 L 305,355 L 304,356 L 304,359 L 303,360 L 303,362 L 302,363 L 302,365 L 301,366 L 301,368 L 300,369 L 300,372 L 299,373 L 299,376 L 298,377 L 298,379 L 297,380 L 297,384 L 296,385 L 296,388 L 295,389 L 295,396 L 296,397 L 296,407 L 297,408 L 297,419 L 298,420 L 298,435 L 299,436 L 299,459 L 300,460 L 300,492 L 299,493 L 299,496 L 298,497 L 298,498 L 297,499 L 297,500 L 295,502 L 295,503 L 291,507 L 290,507 L 288,509 L 287,509 L 286,510 L 284,510 L 283,511 L 279,511 L 511,511 L 511,0 Z" fill="#FFFFFF"/>
  <path d="M 0,0 L 0,511 L 275,511 L 270,511 L 269,510 L 268,510 L 267,509 L 266,509 L 265,508 L 264,508 L 257,501 L 257,500 L 256,499 L 256,498 L 255,497 L 255,495 L 254,494 L 254,481 L 253,480 L 253,443 L 252,442 L 252,427 L 251,426 L 251,412 L 250,411 L 250,402 L 249,401 L 249,393 L 248,392 L 248,384 L 247,383 L 247,376 L 246,375 L 246,370 L 245,369 L 245,364 L 244,363 L 244,358 L 243,357 L 243,351 L 242,350 L 242,347 L 241,346 L 241,342 L 240,341 L 240,337 L 239,336 L 239,333 L 238,332 L 238,328 L 237,327 L 237,324 L 236,323 L 236,320 L 235,319 L 235,317 L 234,316 L 234,313 L 233,312 L 233,309 L 232,308 L 232,306 L 231,305 L 231,302 L 230,301 L 230,299 L 229,298 L 229,297 L 228,296 L 228,294 L 227,293 L 227,291 L 226,290 L 226,288 L 225,287 L 225,285 L 224,284 L 224,282 L 223,281 L 223,280 L 222,279 L 222,278 L 221,277 L 221,275 L 220,274 L 220,273 L 219,272 L 219,271 L 218,270 L 218,268 L 217,267 L 217,266 L 216,265 L 216,264 L 215,263 L 215,261 L 214,260 L 214,259 L 213,258 L 213,257 L 212,256 L 212,254 L 211,253 L 211,252 L 210,251 L 210,249 L 209,248 L 209,247 L 208,246 L 208,245 L 207,244 L 207,243 L 206,242 L 206,241 L 205,240 L 205,239 L 204,238 L 204,237 L 203,236 L 203,235 L 202,234 L 202,233 L 201,232 L 201,231 L 200,230 L 200,229 L 199,228 L 199,227 L 198,226 L 198,225 L 197,224 L 197,223 L 196,222 L 196,221 L 195,220 L 195,219 L 194,218 L 194,217 L 192,215 L 192,214 L 191,213 L 191,212 L 190,211 L 190,210 L 189,209 L 189,208 L 188,207 L 188,206 L 186,204 L 186,203 L 185,202 L 185,201 L 184,200 L 184,199 L 183,198 L 183,197 L 182,196 L 182,195 L 180,193 L 180,192 L 179,191 L 179,190 L 177,188 L 177,187 L 176,186 L 176,185 L 174,183 L 174,182 L 173,181 L 173,180 L 171,178 L 171,177 L 169,175 L 169,174 L 168,173 L 168,172 L 166,170 L 166,169 L 164,167 L 164,166 L 163,165 L 163,164 L 161,162 L 161,161 L 159,159 L 159,158 L 157,156 L 157,155 L 155,153 L 155,152 L 153,150 L 153,149 L 151,147 L 151,146 L 149,144 L 149,143 L 146,140 L 146,139 L 144,137 L 144,136 L 141,133 L 141,132 L 139,130 L 139,129 L 136,126 L 136,125 L 134,123 L 134,122 L 131,119 L 132,120 L 132,121 L 133,122 L 133,123 L 134,124 L 134,125 L 135,126 L 135,128 L 136,129 L 136,130 L 137,131 L 137,132 L 138,133 L 138,134 L 139,135 L 139,137 L 140,138 L 140,139 L 141,140 L 141,142 L 142,143 L 142,144 L 143,145 L 143,147 L 144,148 L 144,149 L 145,150 L 145,152 L 146,153 L 146,155 L 147,156 L 147,158 L 148,159 L 148,160 L 149,161 L 149,163 L 150,164 L 150,166 L 151,167 L 151,169 L 152,170 L 152,172 L 153,173 L 153,175 L 154,176 L 154,179 L 155,180 L 155,182 L 156,183 L 156,185 L 157,186 L 157,189 L 158,190 L 158,193 L 159,194 L 159,197 L 160,198 L 160,201 L 161,202 L 161,206 L 162,207 L 162,211 L 163,212 L 163,216 L 164,217 L 164,222 L 165,223 L 165,229 L 166,230 L 166,238 L 167,239 L 167,252 L 166,253 L 151,253 L 150,252 L 143,252 L 142,251 L 137,251 L 136,250 L 133,250 L 132,249 L 129,249 L 128,248 L 125,248 L 124,247 L 123,247 L 122,246 L 120,246 L 119,245 L 117,245 L 116,244 L 114,244 L 113,243 L 112,243 L 111,242 L 110,242 L 109,241 L 108,241 L 107,240 L 106,240 L 105,239 L 104,239 L 102,237 L 101,237 L 100,236 L 99,236 L 97,234 L 96,234 L 94,232 L 93,232 L 90,229 L 89,229 L 86,226 L 85,226 L 66,207 L 66,206 L 62,202 L 62,201 L 59,198 L 59,197 L 56,194 L 56,193 L 54,191 L 54,190 L 52,188 L 52,187 L 50,185 L 50,184 L 49,183 L 49,182 L 48,181 L 48,180 L 46,178 L 46,177 L 45,176 L 45,175 L 44,174 L 44,173 L 43,172 L 43,171 L 41,169 L 41,168 L 40,167 L 40,166 L 39,165 L 39,164 L 38,163 L 38,162 L 37,161 L 37,159 L 36,158 L 36,157 L 35,156 L 35,155 L 34,154 L 34,153 L 33,152 L 33,150 L 32,149 L 32,148 L 31,147 L 31,145 L 30,144 L 30,143 L 29,142 L 29,141 L 28,140 L 28,138 L 27,137 L 27,135 L 26,134 L 26,132 L 25,131 L 25,130 L 24,129 L 24,126 L 23,125 L 23,123 L 22,122 L 22,120 L 21,119 L 21,117 L 20,116 L 20,113 L 19,112 L 19,110 L 18,109 L 18,107 L 17,106 L 17,103 L 16,102 L 16,99 L 15,98 L 15,95 L 14,94 L 14,91 L 13,90 L 13,87 L 12,86 L 12,83 L 11,82 L 11,78 L 10,77 L 10,73 L 9,72 L 9,68 L 8,67 L 8,63 L 7,62 L 7,57 L 6,56 L 6,50 L 5,49 L 5,44 L 4,43 L 4,37 L 3,36 L 3,28 L 2,27 L 2,19 L 1,18 L 1,6 L 0,5 Z" fill="#FFFFFF"/>
</svg>